<svg xmlns="http://www.w3.org/2000/svg" viewBox="0 0 10000 2000" fill="currentColor">
<g transform="translate(0,2000) scale(1,-1)">
<path d="M1350 1383 l0 -308 -31 55 c-138 251 -471 301 -669 101 -58 -58 -102
-138 -119 -212 -13 -57 -13 -201 0 -258 63 -275 367 -419 609 -290 69 36 149
117 184 183 l26 49 0 -132 c0 -124 1 -131 20 -131 20 0 20 7 20 625 0 618 0
625 -20 625 -20 0 -20 -7 -20 -307z m-270 -88 c99 -35 200 -136 241 -242 30
-80 37 -201 14 -279 -25 -88 -62 -149 -127 -209 -79 -74 -147 -99 -263 -100
-82 0 -96 3 -157 33 -171 84 -264 282 -225 476 20 97 46 152 104 216 53 59
108 93 183 115 65 18 164 14 230 -10z M1680 1065 c0 -618 0 -625 20 -625 19 0
20 7 20 108 l1 107 116 125 c64 69 119 126 123 128 3 1 94 -103 200 -233 151
-182 199 -235 217 -235 13 0 23 2 23 5 0 3 -92 116 -206 252 l-205 246 28 31
c16 17 87 94 158 171 71 77 140 152 154 168 l25 27 -27 0 c-22 0 -75 -53 -314
-314 l-288 -313 -3 488 c-2 481 -3 489 -22 489 -20 0 -20 -8 -20 -625z M4640
1065 l0 -625 35 0 35 0 0 625 0 625 -35 0 -35 0 0 -625z M2838 1341 c-81 -26
-135 -61 -196 -125 -183 -194 -163 -525 42 -689 164 -130 394 -139 570 -22 79
52 84 61 55 90 l-24 25 -45 -36 c-231 -185 -574 -69 -639 217 -37 159 28 332
157 421 131 90 324 89 457 -2 l48 -33 19 23 c25 31 21 39 -38 78 -106 70 -280
93 -406 53z M3798 1341 c-81 -26 -135 -61 -196 -125 -221 -233 -145 -621 146
-752 260 -117 576 30 647 301 52 201 -27 415 -191 521 -115 74 -278 96 -406
55z m305 -83 c251 -116 311 -455 115 -651 -146 -146 -381 -151 -537 -11 -225
202 -147 581 138 676 83 27 207 21 284 -14z M5250 1342 c-262 -87 -385 -407
-256 -667 115 -233 384 -316 631 -195 45 21 88 47 97 57 16 17 15 20 -2 43
-14 19 -23 22 -33 15 -113 -81 -167 -100 -287 -100 -82 0 -103 4 -152 27 -67
31 -138 94 -171 151 -27 46 -57 137 -57 174 l0 23 395 0 395 0 0 53 c0 161
-104 328 -248 399 -58 29 -77 33 -161 35 -72 2 -110 -2 -151 -15z m272 -79
c67 -30 143 -106 175 -175 25 -54 47 -144 38 -158 -4 -7 -125 -10 -362 -10
l-356 0 6 44 c22 155 138 289 284 326 58 14 149 3 215 -27z M6330 1351 c-75
-24 -141 -72 -187 -136 l-22 -30 -1 78 0 77 -40 0 -40 0 0 -450 0 -450 40 0
40 0 0 303 0 302 29 60 c55 115 155 184 267 185 113 0 186 -42 228 -130 20
-43 21 -63 24 -382 l3 -338 34 0 34 0 3 303 3 302 33 67 c57 117 151 178 272
178 108 0 177 -41 219 -129 l26 -56 3 -332 3 -333 35 0 34 0 0 320 c0 404 -10
455 -102 534 -51 44 -120 66 -208 66 -128 0 -237 -54 -299 -148 l-35 -51 -18
42 c-24 53 -71 102 -123 130 -31 16 -62 21 -135 24 -52 1 -106 -1 -120 -6z
M7895 1346 c-217 -69 -344 -290 -307 -533 64 -411 563 -533 794 -193 16 24 17
22 17 -77 l1 -103 35 0 35 0 0 450 0 450 -35 0 -35 0 -1 -97 c0 -80 -2 -94
-12 -79 -49 79 -147 154 -236 180 -65 19 -199 20 -256 2z m287 -89 c62 -30
135 -103 167 -166 121 -236 3 -525 -238 -587 -123 -31 -242 4 -337 100 -86 88
-108 146 -109 291 0 103 2 114 31 175 72 153 186 223 350 217 64 -3 93 -9 136
-30z M9029 1345 c-64 -20 -137 -72 -176 -123 l-33 -44 0 81 0 81 -35 0 -35 0
0 -450 0 -450 35 0 34 0 3 303 c3 301 3 302 29 357 31 66 94 131 157 162 69
34 206 33 276 -1 57 -28 99 -88 115 -162 7 -29 11 -177 11 -354 l0 -305 36 0
35 0 -3 353 c-3 333 -4 354 -24 397 -30 65 -69 107 -128 137 -43 23 -66 27
-151 30 -68 2 -115 -2 -146 -12z"/>
</g>
</svg>
